<svg width="162" height="260" viewBox="0 0 162 260" fill="none" xmlns="http://www.w3.org/2000/svg">
<path d="M30.5 35C14.2076 35 1 27.3888 1 18M30.5 35H161M30.5 35V147V259M1 18C1 8.61116 14.2076 1 30.5 1H161V35M1 18V242C1 251.389 14.2076 259 30.5 259M161 35V259H30.5" stroke="black" stroke-width="2"/>
<rect x="52" y="57" width="90" height="61" stroke="black" stroke-width="2"/>
<path d="M135 10.5C135 11.8807 137.398 13 140.357 13H160V8H140.357C137.398 8 135 9.11929 135 10.5Z" fill="black"/>
<path d="M142 22.5C142 23.8807 143.823 25 146.071 25H161V20H146.071C143.823 20 142 21.1193 142 22.5Z" fill="black"/>
</svg>
